<svg xmlns="http://www.w3.org/2000/svg" version="1.1" xmlns:xlink="http://www.w3.org/1999/xlink" xmlns:svgjs="http://svgjs.dev/svgjs" width="1500" height="1500" viewBox="0 0 1500 1500"><rect width="1500" height="1500" fill="#ffffff"></rect><g transform="matrix(0.6666666666666666,0,0,0.6666666666666666,249.39393939393938,448.15809824044527)"><svg viewBox="0 0 396 239" data-background-color="#d0def9" preserveAspectRatio="xMidYMid meet" height="905" width="1500" xmlns="http://www.w3.org/2000/svg" xmlns:xlink="http://www.w3.org/1999/xlink"><g id="tight-bounds" transform="matrix(1,0,0,1,0.2400000000000091,0.06941633237612166)"><svg viewBox="0 0 395.52 238.86116733524776" height="238.86116733524776" width="395.52"><g><svg viewBox="0 0 395.52 238.86116733524776" height="238.86116733524776" width="395.52"><g transform="matrix(1,0,0,1,0,144.09063981273093)"><svg viewBox="0 0 395.52 94.77052752251683" height="94.77052752251683" width="395.52"><g id="textblocktransform"><svg viewBox="0 0 395.52 94.77052752251683" height="94.77052752251683" width="395.52" id="textblock"><g><svg viewBox="0 0 395.52 55.565880380100616" height="55.565880380100616" width="395.52"><g transform="matrix(1,0,0,1,0,0)"><svg width="395.52" viewBox="2.25 -37.5 268.32 37.7" height="55.565880380100616" data-palette-color="#ff511a"><path d="M15.3 0L12.15 0 12.15-32 2.25-32 2.5-35 25.15-35 24.9-32 15.3-32 15.3 0ZM43.3-24.5L42-21.5Q41.2-21.95 40.3-21.95 39.4-21.95 39.3-21.9L39.3-21.9Q37.4-21.9 35.47-20.53 33.55-19.15 32.2-17.45L32.2-17.45 32.2 0 28.95 0 28.95-25 32.2-25.25 32.2-19.65Q34.05-22 35.35-22.95L35.35-22.95Q37.75-24.75 39.95-24.85L39.95-24.85Q40.25-24.9 41.05-24.9 41.85-24.9 43.3-24.5L43.3-24.5ZM46.5-19.9L45.59-22.3Q51.05-25 55.15-25.15L55.15-25.15Q58.4-25.15 60.17-24.33 61.95-23.5 63.05-22.03 64.15-20.55 64.15-17.9L64.15-17.9 64.15 0 60.9 0 60.9-1.9Q54.05 0.2 52.09 0.2L52.09 0.2Q52 0.2 51.95 0.2L51.95 0.2Q47.45 0.2 45.8-2.55L45.8-2.55Q45.2-3.55 45.12-4.5 45.05-5.45 45.05-6.1L45.05-6.1Q45.05-7.9 46.45-9.33 47.84-10.75 49.8-11.25L49.8-11.25Q53.09-12.1 60.9-12.75L60.9-12.75 60.9-16.8Q60.9-22.25 55.2-22.25L55.2-22.25Q51.2-22.25 46.5-19.9L46.5-19.9ZM48.09-5.7L48.09-5.7Q48.09-2.1 53.05-2.1L53.05-2.1Q57-2.1 60.9-3.8L60.9-3.8 60.9-10.95Q53.09-9.85 51.25-9.25L51.25-9.25Q48.09-8.25 48.09-5.7ZM81.04-25.25L81.04-25.25Q83.99-25.25 86.64-23.5L86.64-23.5 86.64-37.25 89.89-37.5 89.89-1.15 89.64-1.15Q88.09-0.5 84.47-0.15 80.84 0.2 79.44 0.2L79.44 0.2Q75.24 0.2 72.49-1.9L72.49-1.9Q68.64-4.8 68.64-11.45 68.64-18.1 72.22-21.68 75.79-25.25 81.04-25.25ZM86.64-3.2L86.64-21.35Q84.14-22.3 81.74-22.3L81.74-22.3Q77.14-22.3 74.52-19.5 71.89-16.7 71.89-11.55 71.89-6.4 74.74-4.3L74.74-4.3Q76.79-2.7 79.92-2.7 83.04-2.7 86.64-3.2L86.64-3.2ZM96.99-12.3L96.99-11.5Q96.99-2.7 105.39-2.7L105.39-2.7Q108.94-2.7 111.89-3.65L111.89-3.65Q112.64-3.9 112.94-4.05L112.94-4.05 113.69-1.4Q111.94-0.35 107.34 0.1L107.34 0.1Q106.04 0.2 104.59 0.2L104.59 0.2Q100.39 0.2 97.59-1.9L97.59-1.9Q93.74-4.75 93.74-11.4 93.74-18.05 97.22-21.63 100.69-25.2 105.64-25.2 110.59-25.2 113.09-22L113.09-22Q114.99-19.45 114.99-15.25L114.99-15.25Q114.99-14.25 114.89-13.15L114.89-13.15 97.04-13.15Q96.99-12.75 96.99-12.3L96.99-12.3ZM105.84-22.1L105.84-22.1Q102.74-22.1 100.54-20.23 98.34-18.35 97.49-15.4L97.49-15.4 112.04-15.4Q111.79-20.95 107.74-21.85L107.74-21.85Q106.84-22.1 105.84-22.1ZM138.49 0L135.34 0 135.34-35 138.74-35 151.59-9.4 164.44-35 167.84-35 167.84 0 164.69 0 164.69-29.2 153.29-6.55 149.89-6.55 138.49-29.2 138.49 0ZM174.03-19.9L173.13-22.3Q178.58-25 182.68-25.15L182.68-25.15Q185.93-25.15 187.71-24.33 189.48-23.5 190.58-22.03 191.68-20.55 191.68-17.9L191.68-17.9 191.68 0 188.43 0 188.43-1.9Q181.58 0.2 179.63 0.2L179.63 0.2Q179.53 0.2 179.48 0.2L179.48 0.2Q174.98 0.2 173.33-2.55L173.33-2.55Q172.73-3.55 172.66-4.5 172.58-5.45 172.58-6.1L172.58-6.1Q172.58-7.9 173.98-9.33 175.38-10.75 177.33-11.25L177.33-11.25Q180.63-12.1 188.43-12.75L188.43-12.75 188.43-16.8Q188.43-22.25 182.73-22.25L182.73-22.25Q178.73-22.25 174.03-19.9L174.03-19.9ZM175.63-5.7L175.63-5.7Q175.63-2.1 180.58-2.1L180.58-2.1Q184.53-2.1 188.43-3.8L188.43-3.8 188.43-10.95Q180.63-9.85 178.78-9.25L178.78-9.25Q175.63-8.25 175.63-5.7ZM211.28-24.5L210.48-21.7Q208.68-22.3 205.58-22.3 202.48-22.3 200.78-21.2 199.08-20.1 199.08-18.48 199.08-16.85 200.08-16.1 201.08-15.35 202.58-14.83 204.08-14.3 205.85-13.8 207.63-13.3 209.13-12.5L209.13-12.5Q212.63-10.7 212.63-7.15 212.63-3.6 210.21-1.7 207.78 0.2 203.13 0.2L203.13 0.2Q200.78 0.2 198.6-0.28 196.43-0.75 195.28-1.6L195.28-1.6 196.38-4.25Q197.53-3.25 201.03-2.8L201.03-2.8Q202.13-2.65 203.28-2.65L203.28-2.65Q205.88-2.65 207.63-3.73 209.38-4.8 209.38-7L209.38-7Q209.38-8.5 208.38-9.35 207.38-10.2 205.88-10.78 204.38-11.35 202.6-11.8 200.83-12.25 199.33-12.98 197.83-13.7 196.83-14.88 195.83-16.05 195.83-18.05L195.83-18.05Q195.83-21.3 198.33-23.25 200.83-25.2 205.03-25.2L205.03-25.2Q206.08-25.2 207.18-25.08 208.28-24.95 209.18-24.85L209.18-24.85 211.28-24.5ZM227.38-3.6L227.98-0.9Q227.08 0 224.73 0L224.73 0Q221.43 0 220.28-1.7L220.28-1.7Q218.33-3.55 218.33-6.7L218.33-6.7 218.33-22.1 215.53-22.1 215.98-25 218.33-25 218.33-29.95 221.58-30.25 221.58-25 227.38-25 227.38-22.1 221.58-22.1 221.58-5.9Q221.58-3 224.58-3L224.58-3Q225.88-3 227.38-3.6L227.38-3.6ZM233.93-12.3L233.93-11.5Q233.93-2.7 242.33-2.7L242.33-2.7Q245.88-2.7 248.83-3.65L248.83-3.65Q249.58-3.9 249.88-4.05L249.88-4.05 250.63-1.4Q248.88-0.35 244.28 0.1L244.28 0.1Q242.98 0.2 241.53 0.2L241.53 0.2Q237.33 0.2 234.53-1.9L234.53-1.9Q230.68-4.75 230.68-11.4 230.68-18.05 234.15-21.63 237.63-25.2 242.58-25.2 247.53-25.2 250.03-22L250.03-22Q251.93-19.45 251.93-15.25L251.93-15.25Q251.93-14.25 251.83-13.15L251.83-13.15 233.98-13.15Q233.93-12.75 233.93-12.3L233.93-12.3ZM242.78-22.1L242.78-22.1Q239.68-22.1 237.48-20.23 235.28-18.35 234.43-15.4L234.43-15.4 248.98-15.4Q248.73-20.95 244.68-21.85L244.68-21.85Q243.78-22.1 242.78-22.1ZM270.57-24.5L269.27-21.5Q268.47-21.95 267.57-21.95 266.67-21.95 266.57-21.9L266.57-21.9Q264.67-21.9 262.75-20.53 260.82-19.15 259.47-17.45L259.47-17.45 259.47 0 256.22 0 256.22-25 259.47-25.25 259.47-19.65Q261.32-22 262.62-22.95L262.62-22.95Q265.02-24.75 267.22-24.85L267.22-24.85Q267.52-24.9 268.32-24.9 269.12-24.9 270.57-24.5L270.57-24.5Z" opacity="1" transform="matrix(1,0,0,1,0,0)" fill="#000000" class="wordmark-text-0" data-fill-palette-color="primary" id="text-0"></path></svg></g></svg></g><g transform="matrix(1,0,0,1,0,68.68365115671325)"><svg viewBox="0 0 395.52 26.086876365803587" height="26.086876365803587" width="395.52"><g transform="matrix(1,0,0,1,0,0)"><svg width="395.52" viewBox="3.15 -40.85 754.95 49.8" height="26.086876365803587" data-palette-color="#ff511a"><path d="M8.8 0L3.15 0 3.15-40.5 11.3-40.5Q15.35-40.5 18-39.43 20.65-38.35 21.93-35.98 23.2-33.6 23.2-29.75L23.2-29.75Q23.2-27.4 22.7-25.48 22.2-23.55 21.1-22.23 20-20.9 18.2-20.3L18.2-20.3 23.95 0 18.5 0 13.2-19 8.8-19 8.8 0ZM8.8-36.45L8.8-23.05 10.95-23.05Q13.35-23.05 14.85-23.65 16.35-24.25 17.05-25.7 17.75-27.15 17.75-29.75L17.75-29.75Q17.75-33.3 16.45-34.88 15.15-36.45 11.3-36.45L11.3-36.45 8.8-36.45ZM34.35 0L29 0 29-28.9 34.35-28.9 34.35 0ZM34.35-33.2L29-33.2 29-38.8 34.35-38.8 34.35-33.2ZM46.8 0.4L46.8 0.4Q43.25 0.4 41.1-1.83 38.95-4.05 38.65-7.7L38.65-7.7 43.1-9.05Q43.5-6.3 44.45-4.93 45.4-3.55 47.25-3.55L47.25-3.55Q48.7-3.55 49.45-4.38 50.2-5.2 50.2-6.6L50.2-6.6Q50.2-7.85 49.65-8.85 49.1-9.85 47.85-10.9L47.85-10.9 42.9-15.15Q41.4-16.45 40.37-18.05 39.35-19.65 39.35-22.2L39.35-22.2Q39.35-24.5 40.27-26.08 41.2-27.65 42.87-28.48 44.55-29.3 46.8-29.3L46.8-29.3Q50.25-29.3 52.07-27.08 53.9-24.85 54.15-21.7L54.15-21.7 50.55-20.35Q50.35-21.85 49.95-22.98 49.55-24.1 48.85-24.73 48.15-25.35 47-25.35L47-25.35Q45.7-25.35 44.92-24.48 44.15-23.6 44.15-22.4L44.15-22.4Q44.15-21.65 44.47-20.93 44.8-20.2 45.6-19.5L45.6-19.5 50.7-14.8Q51.75-13.85 52.67-12.75 53.59-11.65 54.2-10.25 54.8-8.85 54.8-7L54.8-7Q54.8-4.55 53.8-2.9 52.8-1.25 51-0.43 49.2 0.4 46.8 0.4ZM66.79 0.4L66.79 0.4Q63.39 0.4 61.54-0.93 59.69-2.25 58.97-4.83 58.24-7.4 58.24-11.15L58.24-11.15 58.24-17.75Q58.24-21.6 58.99-24.15 59.74-26.7 61.62-28 63.49-29.3 66.79-29.3L66.79-29.3Q70.44-29.3 72.17-27.8 73.89-26.3 74.44-23.48 74.99-20.65 74.99-16.7L74.99-16.7 74.99-14.35 63.59-14.35 63.59-8.55Q63.59-6.8 63.92-5.7 64.24-4.6 64.97-4.08 65.69-3.55 66.84-3.55L66.84-3.55Q68.04-3.55 68.67-4.13 69.29-4.7 69.52-5.78 69.74-6.85 69.74-8.3L69.74-8.3 69.74-10.05 74.94-10.05 74.94-8.95Q74.94-4.6 73.09-2.1 71.24 0.4 66.79 0.4ZM63.59-18.8L63.59-17.25 69.74-17.25 69.74-19.85Q69.74-21.65 69.54-22.88 69.34-24.1 68.72-24.73 68.09-25.35 66.74-25.35L66.74-25.35Q65.44-25.35 64.77-24.75 64.09-24.15 63.84-22.73 63.59-21.3 63.59-18.8L63.59-18.8ZM98.99 0.4L98.99 0.4Q96.74 0.4 95.36-0.45 93.99-1.3 93.36-2.85 92.74-4.4 92.74-6.5L92.74-6.5 92.74-25.35 89.69-25.35 89.69-28.9 92.74-28.9 92.74-37.35 98.09-37.35 98.09-28.9 102.74-28.9 102.74-25.35 98.09-25.35 98.09-6.85Q98.09-5.15 98.64-4.42 99.19-3.7 100.74-3.7L100.74-3.7Q101.14-3.7 101.66-3.75 102.19-3.8 102.69-3.85L102.69-3.85 102.69 0.1Q101.69 0.25 100.84 0.33 99.99 0.4 98.99 0.4ZM114.64 0.4L114.64 0.4Q111.44 0.4 109.59-0.9 107.74-2.2 106.96-4.6 106.19-7 106.19-10.25L106.19-10.25 106.19-18.65Q106.19-21.9 106.96-24.3 107.74-26.7 109.59-28 111.44-29.3 114.64-29.3L114.64-29.3Q117.84-29.3 119.66-28 121.49-26.7 122.26-24.3 123.04-21.9 123.04-18.65L123.04-18.65 123.04-10.25Q123.04-7 122.26-4.6 121.49-2.2 119.66-0.9 117.84 0.4 114.64 0.4ZM114.64-3.55L114.64-3.55Q116.19-3.55 116.81-4.45 117.44-5.35 117.56-6.83 117.69-8.3 117.69-9.9L117.69-9.9 117.69-18.95Q117.69-20.6 117.56-22.05 117.44-23.5 116.81-24.43 116.19-25.35 114.64-25.35L114.64-25.35Q113.09-25.35 112.44-24.43 111.79-23.5 111.66-22.05 111.54-20.6 111.54-18.95L111.54-18.95 111.54-9.9Q111.54-8.3 111.66-6.83 111.79-5.35 112.44-4.45 113.09-3.55 114.64-3.55ZM147.08 0.4L147.08 0.4Q144.83 0.4 143.46-0.45 142.08-1.3 141.46-2.85 140.83-4.4 140.83-6.5L140.83-6.5 140.83-25.35 137.78-25.35 137.78-28.9 140.83-28.9 140.83-37.35 146.18-37.35 146.18-28.9 150.83-28.9 150.83-25.35 146.18-25.35 146.18-6.85Q146.18-5.15 146.73-4.42 147.28-3.7 148.83-3.7L148.83-3.7Q149.23-3.7 149.75-3.75 150.28-3.8 150.78-3.85L150.78-3.85 150.78 0.1Q149.78 0.25 148.93 0.33 148.08 0.4 147.08 0.4ZM160.28 0L154.93 0 154.93-40.5 160.28-40.5 160.28-25.9Q161.73-27.3 163.53-28.3 165.33-29.3 167.53-29.3L167.53-29.3Q169.23-29.3 170.15-28.4 171.08-27.5 171.45-26.15 171.83-24.8 171.83-23.4L171.83-23.4 171.83 0 166.48 0 166.48-21.85Q166.48-23.4 166.03-24.25 165.58-25.1 164.18-25.1L164.18-25.1Q163.23-25.1 162.2-24.55 161.18-24 160.28-23.2L160.28-23.2 160.28 0ZM185.03 0.4L185.03 0.4Q181.63 0.4 179.78-0.93 177.93-2.25 177.2-4.83 176.48-7.4 176.48-11.15L176.48-11.15 176.48-17.75Q176.48-21.6 177.23-24.15 177.98-26.7 179.85-28 181.73-29.3 185.03-29.3L185.03-29.3Q188.68-29.3 190.4-27.8 192.13-26.3 192.68-23.48 193.23-20.65 193.23-16.7L193.23-16.7 193.23-14.35 181.83-14.35 181.83-8.55Q181.83-6.8 182.15-5.7 182.48-4.6 183.2-4.08 183.93-3.55 185.08-3.55L185.08-3.55Q186.28-3.55 186.9-4.13 187.53-4.7 187.75-5.78 187.98-6.85 187.98-8.3L187.98-8.3 187.98-10.05 193.18-10.05 193.18-8.95Q193.18-4.6 191.33-2.1 189.48 0.4 185.03 0.4ZM181.83-18.8L181.83-17.25 187.98-17.25 187.98-19.85Q187.98-21.65 187.78-22.88 187.58-24.1 186.95-24.73 186.33-25.35 184.98-25.35L184.98-25.35Q183.68-25.35 183-24.75 182.33-24.15 182.08-22.73 181.83-21.3 181.83-18.8L181.83-18.8ZM220.12 0.45L220.12 0.45Q215.82 0.45 213.45-1.35 211.07-3.15 210.15-6.2 209.22-9.25 209.22-13L209.22-13 209.22-27.3Q209.22-31.4 210.15-34.45 211.07-37.5 213.45-39.18 215.82-40.85 220.12-40.85L220.12-40.85Q223.92-40.85 226.15-39.45 228.37-38.05 229.35-35.45 230.32-32.85 230.32-29.2L230.32-29.2 230.32-26 224.97-26 224.97-28.85Q224.97-31.1 224.75-32.83 224.52-34.55 223.52-35.5 222.52-36.45 220.17-36.45L220.17-36.45Q217.77-36.45 216.67-35.43 215.57-34.4 215.25-32.52 214.92-30.65 214.92-28.15L214.92-28.15 214.92-12.1Q214.92-9.05 215.42-7.28 215.92-5.5 217.07-4.75 218.22-4 220.17-4L220.17-4Q222.47-4 223.47-5.03 224.47-6.05 224.72-7.85 224.97-9.65 224.97-12.05L224.97-12.05 224.97-15.05 230.32-15.05 230.32-12.05Q230.32-8.35 229.42-5.53 228.52-2.7 226.32-1.13 224.12 0.45 220.12 0.45ZM240.77 0L235.42 0 235.42-40.5 240.77-40.5 240.77-25.9Q242.22-27.3 244.02-28.3 245.82-29.3 248.02-29.3L248.02-29.3Q249.72-29.3 250.64-28.4 251.57-27.5 251.94-26.15 252.32-24.8 252.32-23.4L252.32-23.4 252.32 0 246.97 0 246.97-21.85Q246.97-23.4 246.52-24.25 246.07-25.1 244.67-25.1L244.67-25.1Q243.72-25.1 242.69-24.55 241.67-24 240.77-23.2L240.77-23.2 240.77 0ZM262.72 0.4L262.72 0.4Q261.02 0.4 259.72-0.58 258.42-1.55 257.67-3.08 256.92-4.6 256.92-6.3L256.92-6.3Q256.92-9 257.82-10.85 258.72-12.7 260.29-13.98 261.87-15.25 263.94-16.2 266.02-17.15 268.32-18.05L268.32-18.05 268.32-20.1Q268.32-21.85 268.12-23 267.92-24.15 267.29-24.73 266.67-25.3 265.42-25.3L265.42-25.3Q264.32-25.3 263.64-24.8 262.97-24.3 262.67-23.38 262.37-22.45 262.37-21.2L262.37-21.2 262.37-19.75 257.07-19.95Q257.17-24.75 259.27-27.03 261.37-29.3 265.77-29.3L265.77-29.3Q270.07-29.3 271.87-26.95 273.67-24.6 273.67-20.15L273.67-20.15 273.67-6.95Q273.67-5.6 273.74-4.35 273.82-3.1 273.94-2.02 274.07-0.95 274.17 0L274.17 0 269.27 0Q269.12-0.8 268.89-2.02 268.67-3.25 268.57-4.25L268.57-4.25Q268.07-2.55 266.64-1.07 265.22 0.4 262.72 0.4ZM264.82-4.2L264.82-4.2Q265.62-4.2 266.32-4.65 267.02-5.1 267.57-5.68 268.12-6.25 268.32-6.6L268.32-6.6 268.32-14.8Q267.07-14.1 265.97-13.4 264.87-12.7 264.04-11.93 263.22-11.15 262.74-10.18 262.27-9.2 262.27-7.95L262.27-7.95Q262.27-6.2 262.92-5.2 263.57-4.2 264.82-4.2ZM284.66 0L279.31 0 279.31-40.5 284.66-40.5 284.66 0ZM296.11 0L290.76 0 290.76-40.5 296.11-40.5 296.11 0ZM309.71 0.4L309.71 0.4Q306.31 0.4 304.46-0.93 302.61-2.25 301.88-4.83 301.16-7.4 301.16-11.15L301.16-11.15 301.16-17.75Q301.16-21.6 301.91-24.15 302.66-26.7 304.53-28 306.41-29.3 309.71-29.3L309.71-29.3Q313.36-29.3 315.08-27.8 316.81-26.3 317.36-23.48 317.91-20.65 317.91-16.7L317.91-16.7 317.91-14.35 306.51-14.35 306.51-8.55Q306.51-6.8 306.83-5.7 307.16-4.6 307.88-4.08 308.61-3.55 309.76-3.55L309.76-3.55Q310.96-3.55 311.58-4.13 312.21-4.7 312.43-5.78 312.66-6.85 312.66-8.3L312.66-8.3 312.66-10.05 317.86-10.05 317.86-8.95Q317.86-4.6 316.01-2.1 314.16 0.4 309.71 0.4ZM306.51-18.8L306.51-17.25 312.66-17.25 312.66-19.85Q312.66-21.65 312.46-22.88 312.26-24.1 311.63-24.73 311.01-25.35 309.66-25.35L309.66-25.35Q308.36-25.35 307.68-24.75 307.01-24.15 306.76-22.73 306.51-21.3 306.51-18.8L306.51-18.8ZM328.11 0L322.75 0 322.75-28.9 328.11-28.9 328.11-26.05Q329.56-27.4 331.31-28.35 333.06-29.3 335.16-29.3L335.16-29.3Q336.91-29.3 337.83-28.4 338.75-27.5 339.13-26.15 339.5-24.8 339.5-23.4L339.5-23.4 339.5 0 334.16 0 334.16-21.85Q334.16-23.4 333.7-24.25 333.25-25.1 331.86-25.1L331.86-25.1Q330.95-25.1 329.98-24.58 329-24.05 328.11-23.3L328.11-23.3 328.11 0ZM352.2 8.95L352.2 8.95Q349.6 8.95 347.5 8.4 345.4 7.85 344.2 6.65 343 5.45 343 3.5L343 3.5Q343 2.1 343.6 1.05 344.2 0 345.15-0.78 346.1-1.55 347.15-2.05L347.15-2.05Q345.75-2.45 345.05-3.33 344.35-4.2 344.35-5.15L344.35-5.15Q344.35-6.75 345.2-7.9 346.05-9.05 347.55-10.4L347.55-10.4Q345.9-11.65 345.05-13.6 344.2-15.55 344.2-19L344.2-19Q344.2-22.4 345.13-24.68 346.05-26.95 347.88-28.13 349.7-29.3 352.35-29.3L352.35-29.3Q354.7-29.3 356.13-28.5 357.55-27.7 358.3-26.1L358.3-26.1Q358.55-26.5 359.65-27.48 360.75-28.45 362.2-29.1L362.2-29.1 363-29.45 364.35-26Q363.7-25.9 362.63-25.53 361.55-25.15 360.63-24.78 359.7-24.4 359.45-24.15L359.45-24.15Q359.8-23.3 360.08-21.7 360.35-20.1 360.35-18.85L360.35-18.85Q360.35-15.9 359.6-13.65 358.85-11.4 357.13-10.13 355.4-8.85 352.35-8.85L352.35-8.85Q351.7-8.85 350.95-8.95 350.2-9.05 349.6-9.2L349.6-9.2Q349.3-8.75 348.98-8.15 348.65-7.55 348.65-7L348.65-7Q348.65-6.45 349.23-6.13 349.8-5.8 351.05-5.7L351.05-5.7 355.55-5.3Q358.95-5 360.6-3.25 362.25-1.5 362.25 1.75L362.25 1.75Q362.25 4.1 361.15 5.73 360.05 7.35 357.83 8.15 355.6 8.95 352.2 8.95ZM352.6 4.75L352.6 4.75Q355.45 4.75 356.8 4.08 358.15 3.4 358.15 1.9L358.15 1.9Q358.15 1 357.83 0.4 357.5-0.2 356.65-0.55 355.8-0.9 354.2-1.05L354.2-1.05 349.65-1.45Q349.1-0.9 348.6-0.35 348.1 0.2 347.8 0.83 347.5 1.45 347.5 2.15L347.5 2.15Q347.5 3.45 348.6 4.1 349.7 4.75 352.6 4.75ZM352.35-12.6L352.35-12.6Q353.5-12.6 354.18-13.03 354.85-13.45 355.2-14.28 355.55-15.1 355.68-16.3 355.8-17.5 355.8-19L355.8-19Q355.8-20.5 355.68-21.73 355.55-22.95 355.23-23.83 354.9-24.7 354.23-25.15 353.55-25.6 352.4-25.6L352.4-25.6Q351.3-25.6 350.58-25.15 349.85-24.7 349.5-23.88 349.15-23.05 349-21.83 348.85-20.6 348.85-19L348.85-19Q348.85-17.65 348.98-16.48 349.1-15.3 349.48-14.45 349.85-13.6 350.55-13.1 351.25-12.6 352.35-12.6ZM374.25 0.4L374.25 0.4Q370.85 0.4 369-0.93 367.15-2.25 366.43-4.83 365.7-7.4 365.7-11.15L365.7-11.15 365.7-17.75Q365.7-21.6 366.45-24.15 367.2-26.7 369.07-28 370.95-29.3 374.25-29.3L374.25-29.3Q377.9-29.3 379.63-27.8 381.35-26.3 381.9-23.48 382.45-20.65 382.45-16.7L382.45-16.7 382.45-14.35 371.05-14.35 371.05-8.55Q371.05-6.8 371.38-5.7 371.7-4.6 372.43-4.08 373.15-3.55 374.3-3.55L374.3-3.55Q375.5-3.55 376.13-4.13 376.75-4.7 376.98-5.78 377.2-6.85 377.2-8.3L377.2-8.3 377.2-10.05 382.4-10.05 382.4-8.95Q382.4-4.6 380.55-2.1 378.7 0.4 374.25 0.4ZM371.05-18.8L371.05-17.25 377.2-17.25 377.2-19.85Q377.2-21.65 377-22.88 376.8-24.1 376.18-24.73 375.55-25.35 374.2-25.35L374.2-25.35Q372.9-25.35 372.23-24.75 371.55-24.15 371.3-22.73 371.05-21.3 371.05-18.8L371.05-18.8ZM387.45 6.55L387.45 6.55 386.6 4.25Q387.95 3.8 388.72 2.68 389.5 1.55 389.5 0L389.5 0 386.65 0 386.65-5.75 392.15-5.75 392.15-0.1Q392.15 2.55 391 4.13 389.85 5.7 387.45 6.55ZM413.04 0L408.44 0 409.19-40.5 414.74-40.5 421.89-7.65 429.09-40.5 434.59-40.5 435.34 0 430.79 0 430.34-29.4 423.49 0 420.29 0 413.49-29.4 413.04 0ZM446.29 0.4L446.29 0.4Q444.59 0.4 443.29-0.58 441.99-1.55 441.24-3.08 440.49-4.6 440.49-6.3L440.49-6.3Q440.49-9 441.39-10.85 442.29-12.7 443.87-13.98 445.44-15.25 447.52-16.2 449.59-17.15 451.89-18.05L451.89-18.05 451.89-20.1Q451.89-21.85 451.69-23 451.49-24.15 450.87-24.73 450.24-25.3 448.99-25.3L448.99-25.3Q447.89-25.3 447.22-24.8 446.54-24.3 446.24-23.38 445.94-22.45 445.94-21.2L445.94-21.2 445.94-19.75 440.64-19.95Q440.74-24.75 442.84-27.03 444.94-29.3 449.34-29.3L449.34-29.3Q453.64-29.3 455.44-26.95 457.24-24.6 457.24-20.15L457.24-20.15 457.24-6.95Q457.24-5.6 457.32-4.35 457.39-3.1 457.52-2.02 457.64-0.95 457.74 0L457.74 0 452.84 0Q452.69-0.8 452.47-2.02 452.24-3.25 452.14-4.25L452.14-4.25Q451.64-2.55 450.22-1.07 448.79 0.4 446.29 0.4ZM448.39-4.2L448.39-4.2Q449.19-4.2 449.89-4.65 450.59-5.1 451.14-5.68 451.69-6.25 451.89-6.6L451.89-6.6 451.89-14.8Q450.64-14.1 449.54-13.4 448.44-12.7 447.62-11.93 446.79-11.15 446.32-10.18 445.84-9.2 445.84-7.95L445.84-7.95Q445.84-6.2 446.49-5.2 447.14-4.2 448.39-4.2ZM469.09 0.4L469.09 0.4Q465.54 0.4 463.39-1.83 461.24-4.05 460.94-7.7L460.94-7.7 465.39-9.05Q465.79-6.3 466.74-4.93 467.69-3.55 469.54-3.55L469.54-3.55Q470.99-3.55 471.74-4.38 472.49-5.2 472.49-6.6L472.49-6.6Q472.49-7.85 471.94-8.85 471.39-9.85 470.14-10.9L470.14-10.9 465.19-15.15Q463.69-16.45 462.66-18.05 461.64-19.65 461.64-22.2L461.64-22.2Q461.64-24.5 462.56-26.08 463.49-27.65 465.16-28.48 466.84-29.3 469.09-29.3L469.09-29.3Q472.54-29.3 474.36-27.08 476.19-24.85 476.44-21.7L476.44-21.7 472.84-20.35Q472.64-21.85 472.24-22.98 471.84-24.1 471.14-24.73 470.44-25.35 469.29-25.35L469.29-25.35Q467.99-25.35 467.21-24.48 466.44-23.6 466.44-22.4L466.44-22.4Q466.44-21.65 466.76-20.93 467.09-20.2 467.89-19.5L467.89-19.5 472.99-14.8Q474.04-13.85 474.96-12.75 475.89-11.65 476.49-10.25 477.09-8.85 477.09-7L477.09-7Q477.09-4.55 476.09-2.9 475.09-1.25 473.29-0.43 471.49 0.4 469.09 0.4ZM488.79 0.4L488.79 0.4Q486.54 0.4 485.16-0.45 483.79-1.3 483.16-2.85 482.54-4.4 482.54-6.5L482.54-6.5 482.54-25.35 479.49-25.35 479.49-28.9 482.54-28.9 482.54-37.35 487.89-37.35 487.89-28.9 492.54-28.9 492.54-25.35 487.89-25.35 487.89-6.85Q487.89-5.15 488.44-4.42 488.99-3.7 490.54-3.7L490.54-3.7Q490.94-3.7 491.46-3.75 491.99-3.8 492.49-3.85L492.49-3.85 492.49 0.1Q491.49 0.25 490.64 0.33 489.79 0.4 488.79 0.4ZM504.48 0.4L504.48 0.4Q501.08 0.4 499.23-0.93 497.38-2.25 496.66-4.83 495.93-7.4 495.93-11.15L495.93-11.15 495.93-17.75Q495.93-21.6 496.68-24.15 497.43-26.7 499.31-28 501.18-29.3 504.48-29.3L504.48-29.3Q508.13-29.3 509.86-27.8 511.58-26.3 512.13-23.48 512.68-20.65 512.68-16.7L512.68-16.7 512.68-14.35 501.28-14.35 501.28-8.55Q501.28-6.8 501.61-5.7 501.93-4.6 502.66-4.08 503.38-3.55 504.53-3.55L504.53-3.55Q505.73-3.55 506.36-4.13 506.98-4.7 507.21-5.78 507.43-6.85 507.43-8.3L507.43-8.3 507.43-10.05 512.63-10.05 512.63-8.95Q512.63-4.6 510.78-2.1 508.93 0.4 504.48 0.4ZM501.28-18.8L501.28-17.25 507.43-17.25 507.43-19.85Q507.43-21.65 507.23-22.88 507.03-24.1 506.41-24.73 505.78-25.35 504.43-25.35L504.43-25.35Q503.13-25.35 502.46-24.75 501.78-24.15 501.53-22.73 501.28-21.3 501.28-18.8L501.28-18.8ZM523.03 0L517.68 0 517.68-28.9 523.03-28.9 523.03-24.8Q524.63-27.45 526.23-28.35 527.83-29.25 529.43-29.25L529.43-29.25Q529.63-29.25 529.8-29.25 529.98-29.25 530.28-29.2L530.28-29.2 530.28-23.3Q529.68-23.55 528.9-23.73 528.13-23.9 527.33-23.9L527.33-23.9Q526.08-23.9 525.05-23.33 524.03-22.75 523.03-21.1L523.03-21.1 523.03 0ZM552.72 0.4L552.72 0.4Q550.47 0.4 549.1-0.45 547.72-1.3 547.1-2.85 546.47-4.4 546.47-6.5L546.47-6.5 546.47-25.35 543.42-25.35 543.42-28.9 546.47-28.9 546.47-37.35 551.82-37.35 551.82-28.9 556.47-28.9 556.47-25.35 551.82-25.35 551.82-6.85Q551.82-5.15 552.37-4.42 552.92-3.7 554.47-3.7L554.47-3.7Q554.87-3.7 555.4-3.75 555.92-3.8 556.42-3.85L556.42-3.85 556.42 0.1Q555.42 0.25 554.57 0.33 553.72 0.4 552.72 0.4ZM565.92 0L560.57 0 560.57-40.5 565.92-40.5 565.92-25.9Q567.37-27.3 569.17-28.3 570.97-29.3 573.17-29.3L573.17-29.3Q574.87-29.3 575.8-28.4 576.72-27.5 577.1-26.15 577.47-24.8 577.47-23.4L577.47-23.4 577.47 0 572.12 0 572.12-21.85Q572.12-23.4 571.67-24.25 571.22-25.1 569.82-25.1L569.82-25.1Q568.87-25.1 567.85-24.55 566.82-24 565.92-23.2L565.92-23.2 565.92 0ZM590.67 0.4L590.67 0.4Q587.27 0.4 585.42-0.93 583.57-2.25 582.84-4.83 582.12-7.4 582.12-11.15L582.12-11.15 582.12-17.75Q582.12-21.6 582.87-24.15 583.62-26.7 585.49-28 587.37-29.3 590.67-29.3L590.67-29.3Q594.32-29.3 596.04-27.8 597.77-26.3 598.32-23.48 598.87-20.65 598.87-16.7L598.87-16.7 598.87-14.35 587.47-14.35 587.47-8.55Q587.47-6.8 587.79-5.7 588.12-4.6 588.84-4.08 589.57-3.55 590.72-3.55L590.72-3.55Q591.92-3.55 592.54-4.13 593.17-4.7 593.39-5.78 593.62-6.85 593.62-8.3L593.62-8.3 593.62-10.05 598.82-10.05 598.82-8.95Q598.82-4.6 596.97-2.1 595.12 0.4 590.67 0.4ZM587.47-18.8L587.47-17.25 593.62-17.25 593.62-19.85Q593.62-21.65 593.42-22.88 593.22-24.1 592.59-24.73 591.97-25.35 590.62-25.35L590.62-25.35Q589.32-25.35 588.64-24.75 587.97-24.15 587.72-22.73 587.47-21.3 587.47-18.8L587.47-18.8ZM620.11 0L615.51 0 616.26-40.5 621.81-40.5 628.96-7.65 636.16-40.5 641.66-40.5 642.41 0 637.86 0 637.41-29.4 630.56 0 627.36 0 620.56-29.4 620.11 0ZM653.36 0.4L653.36 0.4Q651.66 0.4 650.36-0.58 649.06-1.55 648.31-3.08 647.56-4.6 647.56-6.3L647.56-6.3Q647.56-9 648.46-10.85 649.36-12.7 650.94-13.98 652.51-15.25 654.59-16.2 656.66-17.15 658.96-18.05L658.96-18.05 658.96-20.1Q658.96-21.85 658.76-23 658.56-24.15 657.94-24.73 657.31-25.3 656.06-25.3L656.06-25.3Q654.96-25.3 654.29-24.8 653.61-24.3 653.31-23.38 653.01-22.45 653.01-21.2L653.01-21.2 653.01-19.75 647.71-19.95Q647.81-24.75 649.91-27.03 652.01-29.3 656.41-29.3L656.41-29.3Q660.71-29.3 662.51-26.95 664.31-24.6 664.31-20.15L664.31-20.15 664.31-6.95Q664.31-5.6 664.39-4.35 664.46-3.1 664.59-2.02 664.71-0.95 664.81 0L664.81 0 659.91 0Q659.76-0.8 659.54-2.02 659.31-3.25 659.21-4.25L659.21-4.25Q658.71-2.55 657.29-1.07 655.86 0.4 653.36 0.4ZM655.46-4.2L655.46-4.2Q656.26-4.2 656.96-4.65 657.66-5.1 658.21-5.68 658.76-6.25 658.96-6.6L658.96-6.6 658.96-14.8Q657.71-14.1 656.61-13.4 655.51-12.7 654.69-11.93 653.86-11.15 653.39-10.18 652.91-9.2 652.91-7.95L652.91-7.95Q652.91-6.2 653.56-5.2 654.21-4.2 655.46-4.2ZM674.96 0L669.61 0 669.61-28.9 674.96-28.9 674.96-24.8Q676.56-27.45 678.16-28.35 679.76-29.25 681.36-29.25L681.36-29.25Q681.56-29.25 681.73-29.25 681.91-29.25 682.21-29.2L682.21-29.2 682.21-23.3Q681.61-23.55 680.83-23.73 680.06-23.9 679.26-23.9L679.26-23.9Q678.01-23.9 676.98-23.33 675.96-22.75 674.96-21.1L674.96-21.1 674.96 0ZM690.96-0.05L685.61-0.05 685.61-40.55 690.96-40.55 690.96-16.4 698.76-28.9 704.36-28.9 697.56-17.6 704.16 0 698.81 0 693.41-14.8 690.96-11.1 690.96-0.05ZM714.95 0.4L714.95 0.4Q711.55 0.4 709.7-0.93 707.85-2.25 707.13-4.83 706.4-7.4 706.4-11.15L706.4-11.15 706.4-17.75Q706.4-21.6 707.15-24.15 707.9-26.7 709.78-28 711.65-29.3 714.95-29.3L714.95-29.3Q718.6-29.3 720.33-27.8 722.05-26.3 722.6-23.48 723.15-20.65 723.15-16.7L723.15-16.7 723.15-14.35 711.75-14.35 711.75-8.55Q711.75-6.8 712.08-5.7 712.4-4.6 713.13-4.08 713.85-3.55 715-3.55L715-3.55Q716.2-3.55 716.83-4.13 717.45-4.7 717.68-5.78 717.9-6.85 717.9-8.3L717.9-8.3 717.9-10.05 723.1-10.05 723.1-8.95Q723.1-4.6 721.25-2.1 719.4 0.4 714.95 0.4ZM711.75-18.8L711.75-17.25 717.9-17.25 717.9-19.85Q717.9-21.65 717.7-22.88 717.5-24.1 716.88-24.73 716.25-25.35 714.9-25.35L714.9-25.35Q713.6-25.35 712.93-24.75 712.25-24.15 712-22.73 711.75-21.3 711.75-18.8L711.75-18.8ZM735.7 0.4L735.7 0.4Q733.45 0.4 732.08-0.45 730.7-1.3 730.08-2.85 729.45-4.4 729.45-6.5L729.45-6.5 729.45-25.35 726.4-25.35 726.4-28.9 729.45-28.9 729.45-37.35 734.8-37.35 734.8-28.9 739.45-28.9 739.45-25.35 734.8-25.35 734.8-6.85Q734.8-5.15 735.35-4.42 735.9-3.7 737.45-3.7L737.45-3.7Q737.85-3.7 738.38-3.75 738.9-3.8 739.4-3.85L739.4-3.85 739.4 0.1Q738.4 0.25 737.55 0.33 736.7 0.4 735.7 0.4ZM750.1 0.4L750.1 0.4Q746.55 0.4 744.4-1.83 742.25-4.05 741.95-7.7L741.95-7.7 746.4-9.05Q746.8-6.3 747.75-4.93 748.7-3.55 750.55-3.55L750.55-3.55Q752-3.55 752.75-4.38 753.5-5.2 753.5-6.6L753.5-6.6Q753.5-7.85 752.95-8.85 752.4-9.85 751.15-10.9L751.15-10.9 746.2-15.15Q744.7-16.45 743.67-18.05 742.65-19.65 742.65-22.2L742.65-22.2Q742.65-24.5 743.57-26.08 744.5-27.65 746.17-28.48 747.85-29.3 750.1-29.3L750.1-29.3Q753.55-29.3 755.37-27.08 757.2-24.85 757.45-21.7L757.45-21.7 753.85-20.35Q753.65-21.85 753.25-22.98 752.85-24.1 752.15-24.73 751.45-25.35 750.3-25.35L750.3-25.35Q749-25.35 748.22-24.48 747.45-23.6 747.45-22.4L747.45-22.4Q747.45-21.65 747.77-20.93 748.1-20.2 748.9-19.5L748.9-19.5 754-14.8Q755.05-13.85 755.97-12.75 756.9-11.65 757.5-10.25 758.1-8.85 758.1-7L758.1-7Q758.1-4.55 757.1-2.9 756.1-1.25 754.3-0.43 752.5 0.4 750.1 0.4Z" opacity="1" transform="matrix(1,0,0,1,0,0)" fill="#000000" class="slogan-text-1" data-fill-palette-color="secondary" id="text-1"></path></svg></g></svg></g></svg></g></svg></g><g transform="matrix(1,0,0,1,132.27356548194084,0)"><svg viewBox="0 0 130.9728690361183 130.97286903611828" height="130.97286903611828" width="130.9728690361183"><g><svg></svg></g><g id="icon-0"><svg viewBox="0 0 130.9728690361183 130.97286903611828" height="130.97286903611828" width="130.9728690361183"><g><path transform="scale(1.30973,1.30973)" d="M30 100c-16.569 0-30-13.431-30-30v-40c0-16.569 13.431-30 30-30h40c16.569 0 30 13.431 30 30v40c0 16.569-13.431 30-30 30z" fill="#000000" fill-rule="nonzero" stroke="none" stroke-width="1" stroke-linecap="butt" stroke-linejoin="miter" stroke-miterlimit="10" stroke-dasharray="" stroke-dashoffset="0" font-family="none" font-weight="none" font-size="none" text-anchor="none" style="mix-blend-mode: normal" data-fill-palette-color="accent"></path></g><g transform="matrix(1,0,0,1,26.19457380722367,39.35558683055736)"><svg viewBox="0 0 78.58372142167097 52.26169537500356" height="52.26169537500356" width="78.58372142167097"><g><svg xmlns="http://www.w3.org/2000/svg" xmlns:xlink="http://www.w3.org/1999/xlink" version="1.1" x="0" y="0" viewBox="7.6 21.8 84.80631667954077 56.400000000000006" enable-background="new 0 0 100 100" xml:space="preserve" height="52.26169537500356" width="78.58372142167097" class="icon-cg-0" data-fill-palette-color="quaternary" id="cg-0"><path d="M68.9 25.9c-0.1-1.3 1-2.5 2.3-2.6l13.3-0.7c0.7 0 1.4 0.2 1.9 0.7 0.5 0.5 0.7 1.2 0.7 1.9l-0.7 13.3c-0.1 1.3-1.1 2.3-2.4 2.3 0 0-0.1 0-0.1 0-1.3-0.1-2.4-1.2-2.3-2.6L82 27.6l-10.6 0.6C70 28.3 68.9 27.2 68.9 25.9zM90 73.4H15.8l10.8-10.8 4.2 4.2c0.9 0.9 2.5 0.9 3.5 0l11.9-11.9 4.2 4.2c0.5 0.5 1.1 0.7 1.7 0.7 0.6 0 1.3-0.3 1.7-0.7l25.8-25.8c1-1 1-2.5 0-3.5-1-1-2.5-1-3.5 0l-24 24-4.2-4.2c-0.5-0.5-1.1-0.7-1.7-0.7-0.6 0-1.3 0.3-1.7 0.7L32.6 61.6l-4.2-4.2c-0.5-0.5-1.1-0.7-1.7-0.7s-1.3 0.3-1.7 0.7L12.4 69.9V24.2c0-1.3-1.1-2.4-2.4-2.4s-2.4 1.1-2.4 2.4v51.6c0 1.3 1.1 2.4 2.4 2.4H90c1.3 0 2.4-1.1 2.4-2.4C92.5 74.5 91.4 73.4 90 73.4z" fill="#ffffff" data-fill-palette-color="quaternary"></path></svg></g></svg></g></svg></g></svg></g><g></g></svg></g><defs></defs></svg><rect width="395.52" height="238.86116733524776" fill="none" stroke="none" visibility="hidden"></rect></g></svg></g></svg>